<svg width="30" height="30" viewBox="0 0 30 30" fill="none" xmlns="http://www.w3.org/2000/svg">
<path d="M16.2068 0.483088C16.0016 0.180882 15.6601 0 15.2944 0C14.9287 0 14.5872 0.180882 14.3825 0.483088C13.4221 1.89662 5 14.4428 5 19.706C5.00044 25.3822 9.61823 30 15.2944 30C20.9706 30 25.5884 25.3822 25.5884 19.706C25.5884 14.4424 17.1672 1.89662 16.2068 0.483088ZM15.2944 27.7941C10.8346 27.7941 7.20588 24.1654 7.20588 19.706C7.20588 16.2318 12.4056 7.53044 15.2944 3.09662C18.1828 7.53088 23.3825 16.2313 23.3825 19.706C23.3825 24.1654 19.7543 27.7941 15.2944 27.7941Z" fill="#007AFF"/>
<path d="M20.6336 15.1879C20.3803 14.6338 19.7265 14.389 19.1724 14.6422C18.6178 14.895 18.3734 15.5493 18.6266 16.1034C19.7649 18.5987 19.8531 19.4925 19.8531 19.7065C19.8531 22.2194 17.8083 24.2647 15.2944 24.2647C14.6852 24.2647 14.1915 24.7584 14.1915 25.3676C14.1915 25.9769 14.6852 26.4706 15.2944 26.4706C19.0246 26.4706 22.0594 23.4362 22.0594 19.706C22.059 18.7685 21.5931 17.2906 20.6336 15.1879Z" fill="#007AFF"/>
<path d="M16.0916 11.171C16.2072 11.3854 16.3458 11.6431 16.5434 12.0035C16.7441 12.3688 17.1218 12.5753 17.5109 12.5753C17.6905 12.5753 17.8727 12.5312 18.0412 12.439C18.575 12.1456 18.7696 11.4746 18.4766 10.9407C18.283 10.5882 18.1471 10.3359 18.0337 10.125C17.7483 9.59426 17.5908 9.30221 17.0181 8.35809C16.7022 7.83662 16.0233 7.67074 15.5031 7.98662C14.9821 8.3025 14.8158 8.98059 15.1316 9.50162C15.6756 10.3976 15.8062 10.6399 16.0916 11.171Z" fill="#007AFF"/>
</svg>
